<?xml version="1.0" encoding="UTF-8" standalone="no"?>
<!DOCTYPE svg PUBLIC "-//W3C//DTD SVG 1.1//EN"
 "http://www.w3.org/Graphics/SVG/1.1/DTD/svg11.dtd">
<!-- Generated by graphviz version 2.40.1 (20161225.0304)
 -->
<!-- Title: dependencies Pages: 1 -->
<svg width="1048pt" height="284pt"
 viewBox="0.00 0.00 1048.00 284.00" xmlns="http://www.w3.org/2000/svg" xmlns:xlink="http://www.w3.org/1999/xlink">
<g id="graph0" class="graph" transform="scale(1 1) rotate(0) translate(4 280)">
<title>dependencies</title>
<polygon fill="#ffffff" stroke="transparent" points="-4,4 -4,-280 1044,-280 1044,4 -4,4"/>
<text text-anchor="start" x="499.0091" y="-42.4" font-family="sans-serif" font-weight="bold" font-size="14.00" fill="#000000">Legend</text>
<polygon fill="#ffffb3" stroke="transparent" points="286,-10 286,-30 306,-30 306,-10 286,-10"/>
<text text-anchor="start" x="309.629" y="-15.4" font-family="sans-serif" font-size="14.00" fill="#000000"> &#160;Declarations</text>
<polygon fill="#8dd3c7" stroke="transparent" points="399,-10 399,-30 419,-30 419,-10 399,-10"/>
<text text-anchor="start" x="422.7251" y="-15.4" font-family="sans-serif" font-size="14.00" fill="#000000"> &#160;Module</text>
<polygon fill="#80b1d3" stroke="transparent" points="485,-10 485,-30 505,-30 505,-10 485,-10"/>
<text text-anchor="start" x="508.7812" y="-15.4" font-family="sans-serif" font-size="14.00" fill="#000000"> &#160;Bootstrap</text>
<polygon fill="#fdb462" stroke="transparent" points="582,-10 582,-30 602,-30 602,-10 582,-10"/>
<text text-anchor="start" x="605.6732" y="-15.4" font-family="sans-serif" font-size="14.00" fill="#000000"> &#160;Providers</text>
<polygon fill="#fb8072" stroke="transparent" points="678,-10 678,-30 698,-30 698,-10 678,-10"/>
<text text-anchor="start" x="701.7258" y="-15.4" font-family="sans-serif" font-size="14.00" fill="#000000"> &#160;Exports</text>
<g id="clust1" class="cluster">
<title>cluster_PermissionModule</title>
<polygon fill="none" stroke="#000000" stroke-dasharray="1,5" points="8,-70 8,-268 1032,-268 1032,-70 8,-70"/>
</g>
<g id="clust2" class="cluster">
<title>cluster_PermissionModule_declarations</title>
<polygon fill="none" stroke="#000000" points="196,-78 196,-130 1024,-130 1024,-78 196,-78"/>
</g>
<g id="clust9" class="cluster">
<title>cluster_PermissionModule_exports</title>
<polygon fill="none" stroke="#000000" points="101,-208 101,-260 945,-260 945,-208 101,-208"/>
</g>
<g id="clust11" class="cluster">
<title>cluster_PermissionModule_providers</title>
<polygon fill="none" stroke="#000000" points="16,-78 16,-130 188,-130 188,-78 16,-78"/>
</g>
<!-- PermissionAnyOfDirective -->
<g id="node1" class="node">
<title>PermissionAnyOfDirective</title>
<polygon fill="#ffffb3" stroke="#000000" points="1015.6755,-122 846.3245,-122 846.3245,-86 1015.6755,-86 1015.6755,-122"/>
<text text-anchor="middle" x="931" y="-99.8" font-family="Times,serif" font-size="14.00" fill="#000000">PermissionAnyOfDirective</text>
</g>
<!-- PermissionModule -->
<g id="node6" class="node">
<title>PermissionModule</title>
<polygon fill="#8dd3c7" stroke="#000000" points="544.7688,-187 541.7688,-191 520.7688,-191 517.7688,-187 423.2312,-187 423.2312,-151 544.7688,-151 544.7688,-187"/>
<text text-anchor="middle" x="484" y="-164.8" font-family="Times,serif" font-size="14.00" fill="#000000">PermissionModule</text>
</g>
<!-- PermissionAnyOfDirective&#45;&gt;PermissionModule -->
<g id="edge1" class="edge">
<title>PermissionAnyOfDirective&#45;&gt;PermissionModule</title>
<path fill="none" stroke="#000000" d="M891.875,-122.2667C891.875,-140.5552 891.875,-166 891.875,-166 891.875,-166 555.063,-166 555.063,-166"/>
<polygon fill="#000000" stroke="#000000" points="555.063,-162.5001 545.063,-166 555.063,-169.5001 555.063,-162.5001"/>
</g>
<!-- PermissionExceptDirective -->
<g id="node2" class="node">
<title>PermissionExceptDirective</title>
<polygon fill="#ffffb3" stroke="#000000" points="828.6741,-122 659.3259,-122 659.3259,-86 828.6741,-86 828.6741,-122"/>
<text text-anchor="middle" x="744" y="-99.8" font-family="Times,serif" font-size="14.00" fill="#000000">PermissionExceptDirective</text>
</g>
<!-- PermissionExceptDirective&#45;&gt;PermissionModule -->
<g id="edge2" class="edge">
<title>PermissionExceptDirective&#45;&gt;PermissionModule</title>
<path fill="none" stroke="#000000" d="M702.875,-122.0091C702.875,-138.0494 702.875,-159 702.875,-159 702.875,-159 554.9689,-159 554.9689,-159"/>
<polygon fill="#000000" stroke="#000000" points="554.9689,-155.5001 544.9689,-159 554.9689,-162.5001 554.9689,-155.5001"/>
</g>
<!-- PermissionIfDirective -->
<g id="node3" class="node">
<title>PermissionIfDirective</title>
<polygon fill="#ffffb3" stroke="#000000" points="641.6233,-122 502.3767,-122 502.3767,-86 641.6233,-86 641.6233,-122"/>
<text text-anchor="middle" x="572" y="-99.8" font-family="Times,serif" font-size="14.00" fill="#000000">PermissionIfDirective</text>
</g>
<!-- PermissionIfDirective&#45;&gt;PermissionModule -->
<g id="edge3" class="edge">
<title>PermissionIfDirective&#45;&gt;PermissionModule</title>
<path fill="none" stroke="#000000" d="M523.5365,-122.1061C523.5365,-122.1061 523.5365,-140.991 523.5365,-140.991"/>
<polygon fill="#000000" stroke="#000000" points="520.0365,-140.9909 523.5365,-150.991 527.0365,-140.991 520.0365,-140.9909"/>
</g>
<!-- PermissionOnlyDirective -->
<g id="node4" class="node">
<title>PermissionOnlyDirective</title>
<polygon fill="#ffffb3" stroke="#000000" points="484.2991,-122 325.7009,-122 325.7009,-86 484.2991,-86 484.2991,-122"/>
<text text-anchor="middle" x="405" y="-99.8" font-family="Times,serif" font-size="14.00" fill="#000000">PermissionOnlyDirective</text>
</g>
<!-- PermissionOnlyDirective&#45;&gt;PermissionModule -->
<g id="edge4" class="edge">
<title>PermissionOnlyDirective&#45;&gt;PermissionModule</title>
<path fill="none" stroke="#000000" d="M453.6326,-122.1061C453.6326,-122.1061 453.6326,-140.991 453.6326,-140.991"/>
<polygon fill="#000000" stroke="#000000" points="450.1326,-140.9909 453.6326,-150.991 457.1326,-140.991 450.1326,-140.9909"/>
</g>
<!-- PermissionPipe -->
<g id="node5" class="node">
<title>PermissionPipe</title>
<polygon fill="#ffffb3" stroke="#000000" points="307.6067,-122 204.3933,-122 204.3933,-86 307.6067,-86 307.6067,-122"/>
<text text-anchor="middle" x="256" y="-99.8" font-family="Times,serif" font-size="14.00" fill="#000000">PermissionPipe</text>
</g>
<!-- PermissionPipe&#45;&gt;PermissionModule -->
<g id="edge5" class="edge">
<title>PermissionPipe&#45;&gt;PermissionModule</title>
<path fill="none" stroke="#000000" d="M270.327,-122.0091C270.327,-138.0494 270.327,-159 270.327,-159 270.327,-159 413.0558,-159 413.0558,-159"/>
<polygon fill="#000000" stroke="#000000" points="413.0559,-162.5001 423.0558,-159 413.0558,-155.5001 413.0559,-162.5001"/>
</g>
<!-- PermissionAnyOfDirective  -->
<g id="node7" class="node">
<title>PermissionAnyOfDirective </title>
<polygon fill="#fb8072" stroke="#000000" points="937.1757,-252 764.8243,-252 764.8243,-216 937.1757,-216 937.1757,-252"/>
<text text-anchor="middle" x="851" y="-229.8" font-family="Times,serif" font-size="14.00" fill="#000000">PermissionAnyOfDirective </text>
</g>
<!-- PermissionModule&#45;&gt;PermissionAnyOfDirective  -->
<g id="edge6" class="edge">
<title>PermissionModule&#45;&gt;PermissionAnyOfDirective </title>
<path fill="none" stroke="#000000" stroke-dasharray="5,2" d="M545.0193,-173C635.9988,-173 796.6247,-173 796.6247,-173 796.6247,-173 796.6247,-205.698 796.6247,-205.698"/>
<polygon fill="#000000" stroke="#000000" points="793.1247,-205.698 796.6247,-215.698 800.1247,-205.698 793.1247,-205.698"/>
</g>
<!-- PermissionExceptDirective  -->
<g id="node8" class="node">
<title>PermissionExceptDirective </title>
<polygon fill="#fb8072" stroke="#000000" points="746.1743,-252 573.8257,-252 573.8257,-216 746.1743,-216 746.1743,-252"/>
<text text-anchor="middle" x="660" y="-229.8" font-family="Times,serif" font-size="14.00" fill="#000000">PermissionExceptDirective </text>
</g>
<!-- PermissionModule&#45;&gt;PermissionExceptDirective  -->
<g id="edge7" class="edge">
<title>PermissionModule&#45;&gt;PermissionExceptDirective </title>
<path fill="none" stroke="#000000" stroke-dasharray="5,2" d="M544.7811,-180C576.0736,-180 607.7372,-180 607.7372,-180 607.7372,-180 607.7372,-205.7181 607.7372,-205.7181"/>
<polygon fill="#000000" stroke="#000000" points="604.2373,-205.718 607.7372,-215.7181 611.2373,-205.7181 604.2373,-205.718"/>
</g>
<!-- PermissionIfDirective  -->
<g id="node9" class="node">
<title>PermissionIfDirective </title>
<polygon fill="#fb8072" stroke="#000000" points="555.6229,-252 412.3771,-252 412.3771,-216 555.6229,-216 555.6229,-252"/>
<text text-anchor="middle" x="484" y="-229.8" font-family="Times,serif" font-size="14.00" fill="#000000">PermissionIfDirective </text>
</g>
<!-- PermissionModule&#45;&gt;PermissionIfDirective  -->
<g id="edge8" class="edge">
<title>PermissionModule&#45;&gt;PermissionIfDirective </title>
<path fill="none" stroke="#000000" stroke-dasharray="5,2" d="M484,-187.1061C484,-187.1061 484,-205.991 484,-205.991"/>
<polygon fill="#000000" stroke="#000000" points="480.5001,-205.9909 484,-215.991 487.5001,-205.991 480.5001,-205.9909"/>
</g>
<!-- PermissionOnlyDirective  -->
<g id="node10" class="node">
<title>PermissionOnlyDirective </title>
<polygon fill="#fb8072" stroke="#000000" points="394.7989,-252 233.2011,-252 233.2011,-216 394.7989,-216 394.7989,-252"/>
<text text-anchor="middle" x="314" y="-229.8" font-family="Times,serif" font-size="14.00" fill="#000000">PermissionOnlyDirective </text>
</g>
<!-- PermissionModule&#45;&gt;PermissionOnlyDirective  -->
<g id="edge9" class="edge">
<title>PermissionModule&#45;&gt;PermissionOnlyDirective </title>
<path fill="none" stroke="#000000" stroke-dasharray="5,2" d="M422.9119,-180C391.766,-180 360.375,-180 360.375,-180 360.375,-180 360.375,-205.7181 360.375,-205.7181"/>
<polygon fill="#000000" stroke="#000000" points="356.8751,-205.718 360.375,-215.7181 363.8751,-205.7181 356.8751,-205.718"/>
</g>
<!-- PermissionPipe  -->
<g id="node11" class="node">
<title>PermissionPipe </title>
<polygon fill="#fb8072" stroke="#000000" points="215.1073,-252 108.8927,-252 108.8927,-216 215.1073,-216 215.1073,-252"/>
<text text-anchor="middle" x="162" y="-229.8" font-family="Times,serif" font-size="14.00" fill="#000000">PermissionPipe </text>
</g>
<!-- PermissionModule&#45;&gt;PermissionPipe  -->
<g id="edge10" class="edge">
<title>PermissionModule&#45;&gt;PermissionPipe </title>
<path fill="none" stroke="#000000" stroke-dasharray="5,2" d="M423.1628,-173C342.4033,-173 209.875,-173 209.875,-173 209.875,-173 209.875,-205.698 209.875,-205.698"/>
<polygon fill="#000000" stroke="#000000" points="206.3751,-205.698 209.875,-215.698 213.3751,-205.698 206.3751,-205.698"/>
</g>
<!-- PermissionGuard -->
<g id="node12" class="node">
<title>PermissionGuard</title>
<ellipse fill="#fdb462" stroke="#000000" cx="102" cy="-104" rx="78.1675" ry="18"/>
<text text-anchor="middle" x="102" y="-99.8" font-family="Times,serif" font-size="14.00" fill="#000000">PermissionGuard</text>
</g>
<!-- PermissionGuard&#45;&gt;PermissionModule -->
<g id="edge11" class="edge">
<title>PermissionGuard&#45;&gt;PermissionModule</title>
<path fill="none" stroke="#000000" d="M144.3902,-119.3258C144.3902,-137.6858 144.3902,-166 144.3902,-166 144.3902,-166 412.8923,-166 412.8923,-166"/>
<polygon fill="#000000" stroke="#000000" points="412.8924,-169.5001 422.8923,-166 412.8923,-162.5001 412.8924,-169.5001"/>
</g>
</g>
</svg>
